<svg width="366" height="351" viewBox="0 0 366 351" fill="none" xmlns="http://www.w3.org/2000/svg">
<path d="M6.19605 178.489H99.9426C140.096 178.765 173.151 200.584 178.211 237.767H188.271C193.361 200.403 226.714 178.47 267.126 178.47H355.345V254.626H293.44V262.917H359.67C360.819 262.917 361.921 262.48 362.734 261.702C363.547 260.923 364.004 259.867 364.004 258.767V174.291C364.004 173.19 363.547 172.135 362.734 171.356C361.921 170.578 360.819 170.141 359.67 170.141H267.116C226.704 170.141 193.351 148.246 188.261 110.835H178.201C173.111 148.208 139.758 170.141 99.3461 170.141H10.5803C10.9282 145.447 11.4848 106.551 11.6737 93.9851H73.0712V85.6844H8.10465C7.89412 85.6532 7.68148 85.6372 7.46845 85.6367C6.26555 85.6367 3.5516 86.0461 3.144 89.8349C3.144 89.9206 3.144 90.0062 3.144 90.0824C3.144 90.1586 3.144 90.4629 3.144 90.6628L2.95499 102.933C2.8357 110.854 2.68665 121.42 2.53753 131.987L1.94108 174.244C1.93324 174.793 2.03907 175.338 2.25235 175.848C2.46563 176.358 2.78214 176.822 3.18374 177.214C3.98302 177.989 5.05957 178.445 6.19605 178.489Z" fill="#A39F38"/>
<path d="M115.132 264.765H251.328V252.884H115.132V264.765Z" fill="#A39F38"/>
<path d="M50.0066 350.4H50.5236C63.0103 350.5 75.0973 346.189 84.4732 338.292C89.7701 333.818 94.0062 328.312 96.8972 322.142C99.7881 315.971 101.267 309.28 101.234 302.518V193.577H88.8274V302.518C88.8556 307.721 87.6927 312.867 85.4204 317.594C83.1481 322.321 79.8216 326.513 75.6751 329.876C68.6696 335.535 59.7778 338.602 50.6131 338.52H49.9969C44.5628 338.547 39.1883 337.433 34.2521 335.257C29.3159 333.082 24.9376 329.896 21.4253 325.926C15.5157 319.218 12.3132 310.703 12.3987 301.927V301.337C12.3132 292.561 15.5157 284.047 21.4253 277.338C24.938 273.368 29.3166 270.183 34.2527 268.008C39.1889 265.832 44.5629 264.718 49.9969 264.744H74.9096V252.883H49.9969C42.9345 252.852 35.9466 254.268 29.5029 257.036C23.0592 259.804 17.3085 263.861 12.6372 268.933C4.39559 277.91 -0.102708 289.48 0.00178027 301.432V301.842C-0.102415 313.798 4.39971 325.372 12.6472 334.351C17.3181 339.423 23.0688 343.48 29.5126 346.248C35.9564 349.016 42.9441 350.432 50.0066 350.4Z" fill="#A39F38"/>
<path d="M115.141 95.7658H251.337V83.8854H115.141V95.7658Z" fill="#A39F38"/>
<path d="M101.234 48.8537C101.388 39.6415 105.064 30.803 111.566 24.0118C118.068 17.2207 126.945 12.9485 136.516 12.0039C141.698 11.6651 146.897 12.3487 151.792 14.0122C156.687 15.6757 161.173 18.2838 164.973 21.675C168.773 25.0661 171.804 29.168 173.881 33.7268C175.958 38.2856 177.035 43.204 177.047 48.1777V70.558H189.413V48.1777C189.413 35.4001 184.113 23.1461 174.677 14.111C165.242 5.07585 152.444 0 139.1 0C125.757 0 112.959 5.07585 103.524 14.111C94.0884 23.1461 88.7876 35.4001 88.7876 48.1777V155.024H101.194L101.234 48.8537Z" fill="#A39F38"/>
<path d="M350.354 13.2221C340.806 4.64103 328.167 -0.0787905 315.073 0.0471342C305.942 -0.00534616 296.982 2.4135 289.225 7.0249C281.941 11.3417 275.927 17.3663 271.752 24.529C267.577 31.6917 265.379 39.7559 265.366 47.9587V155.138H277.773V47.9299C277.793 41.7619 279.454 35.7005 282.598 30.3174C285.743 24.9344 290.268 20.4072 295.746 17.1631C301.62 13.6829 308.404 11.8677 315.311 11.9276C325.175 11.8262 334.698 15.3763 341.894 21.8372C347.345 26.7957 351.119 33.2053 352.727 40.2381C354.335 47.2709 353.704 54.604 350.916 61.2902C348.128 67.9764 343.311 73.7086 337.086 77.7465C330.862 81.7844 323.515 83.9426 315.997 83.9422H291.651V95.8223H315.997C325.995 95.8219 335.764 92.9516 344.041 87.582C352.319 82.2123 358.725 74.59 362.433 65.699C366.142 56.808 366.981 47.0565 364.844 37.704C362.707 28.3514 357.691 19.8271 350.444 13.2317L350.354 13.2221Z" fill="#A39F38"/>
<path d="M265.266 300.985C265.159 310.414 261.339 319.456 254.568 326.303C247.798 333.149 238.577 337.295 228.751 337.911C223.659 338.09 218.582 337.285 213.823 335.542C209.063 333.8 204.719 331.156 201.051 327.77C197.382 324.383 194.465 320.323 192.472 315.832C190.48 311.341 189.453 306.512 189.453 301.633V278.072H177.047V301.633C177.029 307.961 178.322 314.23 180.851 320.076C183.38 325.923 187.094 331.231 191.78 335.693L192.029 335.931C201.42 344.844 214.117 349.831 227.34 349.801H228.056C241.259 349.575 253.844 344.406 263.117 335.403C272.389 326.4 277.61 314.277 277.663 301.633V193.616H265.256L265.266 300.985Z" fill="#A39F38"/>
</svg>
